<svg xmlns="http://www.w3.org/2000/svg" width="66" height="66" viewBox="0 0 66 66" fill="none"><path d="M12.9321 43.8712L25.9157 36.5808L26.1218 35.9368L25.9157 35.5761H25.2717L23.1077 35.4473L15.6885 35.2412L9.24824 34.9836L3.01405 34.6487L1.44262 34.3138L0 32.4075L0.154567 31.4286L1.46838 30.5527L3.34895 30.7073L7.52225 30.9906L13.7822 31.4286L18.3162 31.6862L25.0398 32.3817H26.096L26.2506 31.9438L25.8899 31.6862L25.6066 31.4286L19.1405 27.0492L12.1335 22.4122L8.47541 19.733L6.4918 18.3934L5.48712 17.1311L5.04918 14.3489L6.85246 12.3653L9.274 12.5199L9.89227 12.6745L17.5948 18.5995L24.4473 23.6487L25.452 24.4731L25.8642 24.1897L25.9157 23.9836L25.4777 23.2365L21.7166 16.5386L17.7237 9.71194L15.9461 6.87822L15.4824 5.15222C15.3279 4.45667 15.1991 3.86417 15.1991 3.14286L17.26 0.360656L18.3934 0L21.1241 0.360656L22.2834 1.36534L23.9836 5.25527L26.74 11.3864L31.0164 19.7073L32.2787 22.1803L32.9485 24.4731L33.2061 25.1686H33.644V24.7564L34.0047 20.0679L34.6487 14.2974L35.2927 6.87822L35.4988 4.79157L36.5293 2.29274L38.5902 0.953162L40.1873 1.726L41.5012 3.60656L41.3208 4.81733L40.548 9.91803L39.0023 17.904L37.9977 23.2365H38.5902L39.2599 22.5667L41.9649 18.9859L46.4988 13.3185L48.5082 11.0773L50.8525 8.57845L52.3466 7.39344H55.1803L57.267 10.5105L56.3396 13.7049L53.4286 17.4145L51.007 20.5574L47.5293 25.2201L45.3653 28.9555L45.5714 29.2646L46.0866 29.2131L53.9438 27.5386L58.1944 26.7658L63.2436 25.8899L65.5363 26.9461L65.7939 28.0281L64.8923 30.2436L59.4824 31.5831L53.1452 32.8454L43.6909 35.0866L43.5621 35.1639L43.6909 35.3185L47.9414 35.7307L49.7705 35.8337H54.2272L62.5222 36.452L64.6862 37.8946L66 39.6464L65.7939 40.9859L62.445 42.6862L57.9368 41.63L47.4262 39.1311L43.8197 38.2295H43.3302V38.5386L46.3443 41.4754L51.8571 46.4473L58.7611 52.8618L59.1218 54.459L58.2459 55.7213L57.3185 55.5925L51.2646 51.0328L48.9204 48.9719L43.6393 44.5152H43.2787V44.9789L44.4895 46.7564L50.9297 56.4426L51.2646 59.4051L50.8009 60.3841L49.1265 60.9766L47.2974 60.6417L43.5363 55.3606L39.6464 49.4098L36.3747 44.0515L35.9883 44.2576L34.1335 64.1967L33.2576 65.2272L31.2482 66L29.5738 64.7377L28.6979 62.6768L29.5738 58.6323L30.63 53.3513L31.5059 49.1522L32.2787 43.9227L32.7424 42.1967L32.7166 42.0679L32.3302 42.1194L28.3888 47.5293L22.3864 55.6183L17.6464 60.6932L16.5129 61.1311L14.555 60.1007L14.7354 58.2717L15.8431 56.6487L22.4122 48.3021L26.3794 43.1241L28.9297 40.1358L28.904 39.6979H28.7494L11.3091 51.007L8.24356 51.445L6.90398 50.1827L7.05855 48.1218L7.70258 47.452L12.9321 43.8712Z" fill="#D97757"></path></svg>